<?xml version="1.0" encoding="UTF-8" standalone="no"?>
<svg
   xmlns:dc="http://purl.org/dc/elements/1.1/"
   xmlns:cc="http://creativecommons.org/ns#"
   xmlns:rdf="http://www.w3.org/1999/02/22-rdf-syntax-ns#"
   xmlns:svg="http://www.w3.org/2000/svg"
   xmlns="http://www.w3.org/2000/svg"
   id="svg2448"
   version="1.1"
   viewBox="0 0 63.783134 15.08499"
   height="15.08499mm"
   width="63.783134mm">
  <defs
     id="defs2442" />
  <metadata
     id="metadata2445">
    <rdf:RDF>
      <cc:Work
         rdf:about="">
        <dc:format>image/svg+xml</dc:format>
        <dc:type
           rdf:resource="http://purl.org/dc/dcmitype/StillImage" />
        <dc:title></dc:title>
      </cc:Work>
    </rdf:RDF>
  </metadata>
  <g
     transform="translate(-104.93582,-60.403934)"
     id="layer1">
    <g
       transform="matrix(0.35277777,0,0,-0.35277777,129.80128,60.403934)"
       id="g1970">
      <path
         id="path1972"
         style="fill:#ffffff;fill-opacity:1;fill-rule:nonzero;stroke:none"
         d="m 0,0 2.408,-0.003 -0.007,-4.843 -2.408,0.003 z m -0.021,-9.563 2.409,-0.003 -0.034,-24.723 -2.409,0.003 z" />
    </g>
    <g
       transform="matrix(0.35277777,0,0,-0.35277777,132.00889,66.281248)"
       id="g1974">
      <path
         id="path1976"
         style="fill:#ffffff;fill-opacity:1;fill-rule:nonzero;stroke:none"
         d="M 0,0 C 0.006,4.176 0.008,5.835 -0.039,7.089 L 2.247,7.086 C 2.353,6.382 2.352,5.471 2.358,4.668 3.005,6.346 4.29,7.476 6.511,7.473 8.335,7.471 9.75,6.741 10.263,4.477 10.95,6.099 12.237,7.465 14.692,7.462 16.923,7.459 19.182,6.56 19.176,1.837 L 19.149,-17.661 16.74,-17.657 16.767,1.27 C 16.77,3.361 16.445,5.187 14.137,5.19 11.401,5.194 10.799,2.613 10.795,-0.215 L 10.771,-17.649 8.354,-17.646 8.38,1.018 C 8.384,3.972 7.697,5.199 5.668,5.202 3.049,5.205 2.412,2.542 2.408,-0.593 l -0.023,-17.044 -2.409,0.003 z" />
    </g>
    <g
       transform="matrix(0.35277777,0,0,-0.35277777,139.96396,72.513101)"
       id="g1978">
      <path
         id="path1980"
         style="fill:#ffffff;fill-opacity:1;fill-rule:nonzero;stroke:none"
         d="M 0,0 0.009,6.338 2.465,6.335 2.456,-0.003 Z" />
    </g>
    <g
       transform="matrix(0.35277777,0,0,-0.35277777,145.68937,69.919621)"
       id="g1982">
      <path
         id="path1984"
         style="fill:#ffffff;fill-opacity:1;fill-rule:nonzero;stroke:none"
         d="m 0,0 0.015,10.669 c 0.004,3.191 -1.172,4.383 -2.82,4.386 -2.835,0.004 -3.535,-2.46 -3.54,-5.786 L -6.355,1.23 C -6.359,-1.752 -5.968,-4.876 -3.06,-4.88 -0.893,-4.883 -0.004,-3.128 0,0 m -6.333,-5.265 -0.015,-10.522 -3.122,0.004 0.035,26.142 c 0.005,3.408 0.008,5.607 -0.039,7.194 l 2.972,-0.004 c 0.066,-0.537 0.132,-1.495 0.13,-2.711 0.598,1.684 1.93,3.101 4.499,3.098 3.395,-0.005 5.049,-2.276 5.042,-7.207 L 3.154,0.077 C 3.147,-5.392 0.96,-7.768 -2.244,-7.764 c -2.557,0.004 -3.593,1.337 -4.089,2.499" />
    </g>
    <g
       transform="matrix(0.35277777,0,0,-0.35277777,152.35221,70.145964)"
       id="g1986">
      <path
         id="path1988"
         style="fill:#ffffff;fill-opacity:1;fill-rule:nonzero;stroke:none"
         d="m 0,0 c -0.005,-3.238 -0.008,-5.569 0.04,-6.758 l -3.327,0.005 c -0.071,0.46 -0.141,1.719 -0.14,2.6 -0.775,-2.264 -2.353,-2.99 -4.497,-2.987 -2.055,0.003 -4.868,0.806 -4.86,6.393 l 0.026,19.018 3.492,-0.004 L -9.29,0.165 c -0.004,-2.966 0.794,-4.134 2.647,-4.136 1.755,-0.002 3.146,1.054 3.153,5.829 l 0.022,16.401 3.492,-0.005 z" />
    </g>
    <g
       transform="matrix(0.35277777,0,0,-0.35277777,153.5821,72.531693)"
       id="g1990">
      <path
         id="path1992"
         style="fill:#ffffff;fill-opacity:1;fill-rule:nonzero;stroke:none"
         d="M 0,0 0.047,34.259 4.448,34.253 4.401,-0.005 Z" />
    </g>
    <g
       transform="matrix(0.35277777,0,0,-0.35277777,158.32153,69.580777)"
       id="g1994">
      <path
         id="path1996"
         style="fill:#ffffff;fill-opacity:1;fill-rule:nonzero;stroke:none"
         d="m 0,0 -0.002,-1.213 c -0.002,-1.431 0.291,-2.617 1.605,-2.619 0.969,-0.001 1.459,0.614 1.46,1.999 0.002,1.408 -0.338,2.383 -3.393,4.333 -3.862,2.455 -5.406,4.324 -5.401,8.078 0.005,4.73 2.604,7.313 7.4,7.306 5.776,-0.008 7.369,-3.183 7.363,-7.561 L 9.031,9.219 3.207,9.227 3.209,10.797 C 3.211,12.433 2.761,13.005 1.815,13.007 0.857,13.008 0.449,12.311 0.447,11.132 0.445,9.924 0.974,9.316 3.197,7.94 7.981,4.968 9.415,2.89 9.41,-0.958 9.403,-6.024 7.155,-8.803 1.569,-8.795 c -6.618,0.009 -7.629,4.109 -7.623,7.846 l 0.001,0.957 z" />
    </g>
    <g
       transform="matrix(0.35277777,0,0,-0.35277777,165.84734,68.440459)"
       id="g1998">
      <path
         id="path2000"
         style="fill:#ffffff;fill-opacity:1;fill-rule:nonzero;stroke:none"
         d="m 0,0 c -0.197,0 -0.246,0 -0.344,0 -1.277,0.002 -2.015,-0.881 -2.018,-2.945 l -10e-4,-0.197 c -0.002,-2.014 0.488,-2.555 1.225,-2.556 0.835,-10e-4 1.131,0.736 1.133,2.062 z m 7.903,-4.875 c -0.005,-3.685 0.091,-5.454 0.237,-6.78 l -7.468,0.01 c -0.245,0.393 -0.392,1.572 -0.44,2.064 -1.181,-1.865 -2.951,-2.403 -4.769,-2.401 -4.077,0.005 -5.645,3.644 -5.64,7.819 l 10e-4,0.541 c 0.01,6.976 4.631,8.592 9.789,8.585 0.246,-0.001 0.246,-0.001 0.394,-0.001 L 0.011,7.91 C 0.013,9.335 -0.331,9.679 -1.019,9.68 -1.707,9.681 -2.052,9.239 -2.054,7.667 l -0.001,-1.081 -7.32,0.01 10e-4,0.688 c 0.008,5.896 3.204,7.955 8.756,7.947 5.208,-0.006 8.546,-1.927 8.539,-6.988 z" />
    </g>
    <g
       transform="matrix(0.35277777,0,0,-0.35277777,125.2913,66.302097)"
       id="g2002">
      <path
         id="path2004"
         style="fill:#ffffff;fill-opacity:1;fill-rule:nonzero;stroke:none"
         d="m 0,0 -20.826,12.024 c -1.696,0.979 -3.817,-0.244 -3.817,-2.203 v -24.049 c 0,-1.958 2.121,-3.182 3.817,-2.203 L 0,-4.406 C 1.696,-3.427 1.696,-0.979 0,0" />
    </g>
    <g
       transform="matrix(0.35277777,0,0,-0.35277777,114.81031,66.267982)"
       id="g2006">
      <path
         id="path2008"
         style="fill:#bebebe;fill-opacity:1;fill-rule:nonzero;stroke:none"
         d="m 0,0 -20.189,-11.943 c -1.445,-0.854 -3.27,0.187 -3.27,1.864 v 20.338 c 0,1.678 1.825,2.719 3.27,1.865 L 0,0.18 C 0.068,0.14 0.068,0.041 0,0" />
    </g>
    <g
       transform="matrix(0.35277777,0,0,-0.35277777,105.43034,69.198401)"
       id="g2010">
      <path
         id="path2012"
         style="fill:#dcdcdc;fill-opacity:1;fill-rule:nonzero;stroke:none"
         d="m 0,0 v 7.767 c 0,1.315 1.083,2.38 2.419,2.38 L 26.741,8.396" />
    </g>
    <g
       transform="matrix(0.35277777,0,0,-0.35277777,114.86404,66.236126)"
       id="g2014">
      <path
         id="path2016"
         style="fill:#ffffff;fill-opacity:1;fill-rule:nonzero;stroke:none"
         d="m 0,0 -26.515,-7.871 c -0.965,-0.287 -1.628,-1.175 -1.628,-2.182 v -6.084 c 0,-0.439 0.423,-0.755 0.844,-0.63 l 25.987,7.715 C -0.534,-8.821 0,-8.106 0,-7.294 Z" />
    </g>
  </g>
</svg>
